<svg width="31" height="30" viewBox="0 0 31 30" fill="none" xmlns="http://www.w3.org/2000/svg">
<path d="M15.5 20.625C18.6066 20.625 21.125 18.1066 21.125 15C21.125 11.8934 18.6066 9.375 15.5 9.375C12.3934 9.375 9.875 11.8934 9.875 15C9.875 18.1066 12.3934 20.625 15.5 20.625Z" stroke="#969AA3" stroke-width="1.8" stroke-linecap="round" stroke-linejoin="round"/>
<path d="M22.0273 7.62891C22.3242 7.90234 22.6055 8.18359 22.8711 8.47266L26.0703 8.92969C26.5916 9.83497 26.9934 10.804 27.2656 11.8125L25.3203 14.4023C25.3203 14.4023 25.3555 15.1992 25.3203 15.5977L27.2656 18.1875C26.9946 19.1965 26.5928 20.1656 26.0703 21.0703L22.8711 21.5273C22.8711 21.5273 22.3203 22.1016 22.0273 22.3711L21.5703 25.5703C20.665 26.0916 19.696 26.4934 18.6875 26.7656L16.0977 24.8203C15.7 24.8555 15.3 24.8555 14.9023 24.8203L12.3125 26.7656C11.3035 26.4946 10.3344 26.0928 9.42969 25.5703L8.97266 22.3711C8.68359 22.0977 8.40234 21.8164 8.12891 21.5273L4.92969 21.0703C4.40842 20.165 4.00663 19.196 3.73438 18.1875L5.67969 15.5977C5.67969 15.5977 5.64453 14.8008 5.67969 14.4023L3.73438 11.8125C4.00537 10.8035 4.40722 9.83438 4.92969 8.92969L8.12891 8.47266C8.40234 8.18359 8.68359 7.90234 8.97266 7.62891L9.42969 4.42969C10.335 3.90842 11.304 3.50663 12.3125 3.23438L14.9023 5.17969C15.3 5.14452 15.7 5.14452 16.0977 5.17969L18.6875 3.23438C19.6965 3.50537 20.6656 3.90722 21.5703 4.42969L22.0273 7.62891Z" stroke="#969AA3" stroke-width="1.8" stroke-linecap="round" stroke-linejoin="round"/>
</svg>
