<svg width="26" height="26" viewBox="0 0 26 26" fill="none" xmlns="http://www.w3.org/2000/svg">
<path d="M9.25 16.75H2.6875C2.43886 16.75 2.2004 16.6512 2.02459 16.4754C1.84877 16.2996 1.75 16.0611 1.75 15.8125V10.1875C1.75 9.93886 1.84877 9.7004 2.02459 9.52459C2.2004 9.34877 2.43886 9.25 2.6875 9.25H9.25V2.6875C9.25 2.43886 9.34877 2.2004 9.52459 2.02459C9.7004 1.84877 9.93886 1.75 10.1875 1.75H15.8125C16.0611 1.75 16.2996 1.84877 16.4754 2.02459C16.6512 2.2004 16.75 2.43886 16.75 2.6875V9.25H23.3125C23.5611 9.25 23.7996 9.34877 23.9754 9.52459C24.1512 9.7004 24.25 9.93886 24.25 10.1875V15.8125C24.25 16.0611 24.1512 16.2996 23.9754 16.4754C23.7996 16.6512 23.5611 16.75 23.3125 16.75H16.75V23.3125C16.75 23.5611 16.6512 23.7996 16.4754 23.9754C16.2996 24.1512 16.0611 24.25 15.8125 24.25H10.1875C9.93886 24.25 9.7004 24.1512 9.52459 23.9754C9.34877 23.7996 9.25 23.5611 9.25 23.3125V16.75Z" stroke="#969AA3" stroke-width="1.8" stroke-linecap="round" stroke-linejoin="round"/>
</svg>
